<svg xmlns="http://www.w3.org/2000/svg" xmlns:xlink="http://www.w3.org/1999/xlink" version="1.1" x="0px" y="0px" viewBox="0 0 100 125" enable-background="new 0 0 100 100" xml:space="preserve"><path fill="#000000" d="M87.2402344,12.809082h-8.1962891v-2.7988281c0-1.4887695-1.2109375-2.7001953-2.7001953-2.7001953  h-1.4013672c-1.4892578,0-2.7001953,1.2114258-2.7001953,2.7001953v2.7988281H61.9482422v-2.7988281  c0-1.4887695-1.2109375-2.7001953-2.7001953-2.7001953h-1.4003906c-1.4892578,0-2.7001953,1.2114258-2.7001953,2.7001953v2.7988281  H44.8525391v-2.7988281c0-1.4887695-1.2109375-2.7001953-2.7001953-2.7001953h-1.4003906  c-1.4892578,0-2.7001953,1.2114258-2.7001953,2.7001953v2.7988281H27.7578125v-2.7988281  c0-1.4887695-1.2109375-2.7001953-2.7001953-2.7001953H23.65625c-1.4892578,0-2.7001953,1.2114258-2.7001953,2.7001953v2.7988281  h-8.1962891c-1.4887695,0-2.7001953,1.2114258-2.7001953,2.7001953v74.4804688c0,1.4887695,1.2114258,2.7001953,2.7001953,2.7001953  h56.5976563c0.3292236,0,0.6484375-0.065918,0.9503174-0.1799316c0.0360107-0.0134277,0.0717163-0.0280762,0.1071167-0.0432129  c0.0765381-0.0307617,0.1535645-0.0610352,0.2228394-0.1098633l0.0679932-0.0476074  c0.0671387-0.0373535,0.138916-0.0649414,0.2025146-0.1096191l17.2803955-12.1259766l0.2635498-0.1845703l0.0009766-0.0009766  c0.0004272-0.0002441,0.0007935-0.0007324,0.0012207-0.0009766l0.3366699-0.2363281  c0.7197266-0.5048828,1.1494141-1.3310547,1.1494141-2.2099609V15.5092773  C89.9404297,14.0205078,88.7294922,12.809082,87.2402344,12.809082z M74.1425781,14.7094727v-0.9501953V12.809082v-2.7988281  c0-0.440918,0.3583984-0.7998047,0.7998047-0.7998047H76.34375c0.4414063,0,0.7998047,0.3588867,0.7998047,0.7998047v2.7988281  v0.9501953v0.9501953v4.4130859c0,0.440918-0.3583984,0.7998047-0.7998047,0.7998047h-1.4013672  c-0.4414063,0-0.7998047-0.3588867-0.7998047-0.7998047V14.7094727z M57.0478516,14.7094727v-0.9501953V12.809082v-2.7988281  c0-0.440918,0.3583984-0.7998047,0.7998047-0.7998047h1.4003906c0.4414063,0,0.7998047,0.3588867,0.7998047,0.7998047v2.7988281  v0.9501953v0.9501953v4.4130859c0,0.440918-0.3583984,0.7998047-0.7998047,0.7998047h-1.4003906  c-0.4414063,0-0.7998047-0.3588867-0.7998047-0.7998047V14.7094727z M39.9521484,14.7094727v-0.9501953V12.809082v-2.7988281  c0-0.440918,0.3583984-0.7998047,0.7998047-0.7998047h1.4003906c0.4414063,0,0.7998047,0.3588867,0.7998047,0.7998047v2.7988281  v0.9501953v0.9501953v4.4130859c0,0.440918-0.3583984,0.7998047-0.7998047,0.7998047h-1.4003906  c-0.4414063,0-0.7998047-0.3588867-0.7998047-0.7998047V14.7094727z M22.8564453,14.7094727v-0.9501953V12.809082v-2.7988281  c0-0.440918,0.3583984-0.7998047,0.7998047-0.7998047h1.4013672c0.4414063,0,0.7998047,0.3588867,0.7998047,0.7998047v2.7988281  v0.9501953v0.9501953v4.4130859c0,0.440918-0.3583984,0.7998047-0.7998047,0.7998047H23.65625  c-0.4414063,0-0.7998047-0.3588867-0.7998047-0.7998047V14.7094727z M70.8125,89.9155273v-10.184082  c0-0.440918,0.3583984-0.7998047,0.7998047-0.7998047h14.8945313L70.8125,89.9155273z M88.0400391,77.03125H71.6123047  c-1.4892578,0-2.7001953,1.2114258-2.7001953,2.7001953v11.0581055H12.7597656c-0.440918,0-0.7998047-0.3588867-0.7998047-0.7998047  V15.5092773c0-0.440918,0.3588867-0.7998047,0.7998047-0.7998047h8.1962891v4.4130859  c0,1.4887695,1.2109375,2.7001953,2.7001953,2.7001953h1.4013672c1.4892578,0,2.7001953-1.2114258,2.7001953-2.7001953v-4.4130859  h10.2939453v4.4130859c0,1.4887695,1.2109375,2.7001953,2.7001953,2.7001953h1.4003906  c1.4892578,0,2.7001953-1.2114258,2.7001953-2.7001953v-4.4130859h10.2949219v4.4130859  c0,1.4887695,1.2109375,2.7001953,2.7001953,2.7001953h1.4003906c1.4892578,0,2.7001953-1.2114258,2.7001953-2.7001953v-4.4130859  h10.2939453v4.4130859c0,1.4887695,1.2109375,2.7001953,2.7001953,2.7001953H76.34375  c1.4892578,0,2.7001953-1.2114258,2.7001953-2.7001953v-4.4130859h8.1962891c0.4414063,0,0.7998047,0.3588867,0.7998047,0.7998047  V77.03125z M67.8646851,47.1193848l-6.8747559,6.9384766c-0.4053955,0.4091797-0.5834961,0.9916992-0.4762573,1.5576172  l1.8183594,9.5969238c0.2700195,1.4250488-1.2112427,2.5410156-2.5066528,1.8886719l-8.7233887-4.3942871  c-0.5144043-0.2590332-1.1233521-0.2485352-1.628479,0.0283203l-8.5651855,4.6950684  c-1.2719116,0.6972656-2.7911987-0.3666992-2.5709229-1.800293l1.4834595-9.6542969  c0.0874634-0.5693359-0.1107788-1.1452637-0.5301514-1.5400391l-7.1119995-6.6953125  c-1.0561523-0.9941406-0.5137939-2.7678223,0.9177856-3.0014648l9.6401978-1.5722656  c0.5684204-0.0927734,1.0548706-0.4594727,1.3007813-0.9802246l4.1697388-8.8327637  c0.6192017-1.3117676,2.4736938-1.3439941,3.1381226-0.0546875l4.4745483,8.682373  c0.263855,0.5119629,0.7627563,0.8615723,1.3341064,0.9343262l9.6890259,1.2363281  C68.2818604,44.3352051,68.8855591,46.0888672,67.8646851,47.1193848z"/><text x="0" y="115" fill="#000000" font-size="5px" font-weight="bold" font-family="'Helvetica Neue', Helvetica, Arial-Unicode, Arial, Sans-serif">Created by Llisole</text><text x="0" y="120" fill="#000000" font-size="5px" font-weight="bold" font-family="'Helvetica Neue', Helvetica, Arial-Unicode, Arial, Sans-serif">from the Noun Project</text></svg>