<svg xmlns="http://www.w3.org/2000/svg" xmlns:xlink="http://www.w3.org/1999/xlink" version="1.1" x="0px" y="0px" viewBox="0 0 96 120" enable-background="new 0 0 96 96" xml:space="preserve"><g><polygon points="44.51,48.736 14.427,48.736 8,48.736 8,56.648 8,83.819 14.427,83.819 14.427,56.648 44.51,56.648 44.51,83.819    50.938,83.819 50.938,56.648 50.961,56.648 50.961,48.736 50.938,48.736  "/><path d="M29.123,48.222h21.536v-3.964H32.12l-5.815-17.329l-3.762,1.262l6.58,19.596V48.222z M23.81,28.821l1.865-0.626   l5.727,17.063h18.257v1.964h-19.67L23.81,28.821z"/><path d="M56.549,26.521c3.959,0,7.168-3.209,7.168-7.169c0-3.961-3.209-7.171-7.168-7.171c-3.962,0-7.172,3.209-7.172,7.171   C49.377,23.312,52.587,26.521,56.549,26.521z"/><path d="M83.587,29.061v29.995h-9.09c0.474-0.245,0.948-0.481,1.417-0.651c3.206-1.169,4.861-4.717,3.695-7.923L71.915,29.34   c-1.17-3.208-4.715-4.862-7.925-3.695c-2.237,0.815-3.691,2.794-3.985,5.002l-13.763,6.494c-1.608,0.759-2.297,2.678-1.538,4.284   c0.758,1.606,2.679,2.295,4.283,1.534l12.569-5.931l4.735,13.006h-7.566c-2.117,0-3.833,1.716-3.833,3.831v24.822   c0,2.832,1.857,5.132,4.147,5.132c2.291,0,4.147-2.3,4.147-5.132V59.86h2.257v3.609v20.35h4.729V63.47h13.029v20.35h4.729V63.47H88   v-4.414V29.061H83.587z"/></g><text x="0" y="111" fill="#000000" font-size="5px" font-weight="bold" font-family="'Helvetica Neue', Helvetica, Arial-Unicode, Arial, Sans-serif">Created by Fahmihorizon</text><text x="0" y="116" fill="#000000" font-size="5px" font-weight="bold" font-family="'Helvetica Neue', Helvetica, Arial-Unicode, Arial, Sans-serif">from the Noun Project</text></svg>