<svg xmlns="http://www.w3.org/2000/svg" data-name="Layer 1" viewBox="0 0 100 125" x="0px" y="0px"><title>adver</title><path d="M53.6,71a1,1,0,0,1-.59-.19L45.33,65.2l-7.68,5.58a1,1,0,0,1-1.17,0,1,1,0,0,1-.36-1.12l2.93-9-7.68-5.57A1,1,0,0,1,32,53.25h9.49l2.93-9a1,1,0,0,1,.95-.69,1,1,0,0,1,1,.69l2.94,9h9.49a1,1,0,0,1,.95.69,1,1,0,0,1-.36,1.12l-7.68,5.57,2.93,9A1,1,0,0,1,53.6,71Zm-8.27-8a1,1,0,0,1,.59.19l5.78,4.19-2.21-6.79a1,1,0,0,1,.36-1.12l5.78-4.19H48.49a1,1,0,0,1-1-.69l-2.21-6.8-2.2,6.8a1,1,0,0,1-1,.69H35l5.77,4.19a1,1,0,0,1,.37,1.12L39,67.35l5.78-4.19A1,1,0,0,1,45.33,63Z"/><path d="M71.92,84.14H18.75A9.76,9.76,0,0,1,9,74.39V31.69a9.76,9.76,0,0,1,9.75-9.75H71.92a9.76,9.76,0,0,1,9.75,9.75V69.38a1,1,0,0,1-2,0V31.69a7.76,7.76,0,0,0-7.75-7.75H18.75A7.76,7.76,0,0,0,11,31.69v42.7a7.76,7.76,0,0,0,7.75,7.75H71.92a7.52,7.52,0,0,0,1.91-.24,1,1,0,0,1,.5,1.94A9.59,9.59,0,0,1,71.92,84.14Z"/><path d="M80.67,36.23H10a1,1,0,0,1,0-2H80.67a1,1,0,0,1,0,2Z"/><path d="M28.2,23.94a1,1,0,0,1-1-1V17.86H23.72v5.08a1,1,0,0,1-2,0V16.86a1,1,0,0,1,1-1H28.2a1,1,0,0,1,1,1v6.08A1,1,0,0,1,28.2,23.94Z"/><path d="M68,23.94a1,1,0,0,1-1-1V17.86H63.46v5.08a1,1,0,1,1-2,0V16.86a1,1,0,0,1,1-1H68a1,1,0,0,1,1,1v6.08A1,1,0,0,1,68,23.94Z"/><path d="M95.13,81.67l-.15,0L82.66,79.73a1,1,0,1,1,.31-2L94.13,79.5V68.29L71,71.9v4l3.23.51a1,1,0,1,1-.31,2l-4.07-.63a1,1,0,0,1-.85-1V71.05a1,1,0,0,1,.85-1L95,66.13a1,1,0,0,1,.81.23,1,1,0,0,1,.34.76V80.67a1,1,0,0,1-.34.76A1.07,1.07,0,0,1,95.13,81.67Z"/><path d="M70,77.74H64a1,1,0,0,1-1-1V71.05a1,1,0,0,1,1-1h6a1,1,0,0,1,1,1v5.69A1,1,0,0,1,70,77.74Zm-5-2h4V72.05H65Z"/><path d="M82.81,84.12H74.08a1,1,0,0,1-1-1V77.38a1,1,0,0,1,.35-.76,1,1,0,0,1,.8-.23L83,77.75a1,1,0,0,1,.84,1v4.38A1,1,0,0,1,82.81,84.12Zm-7.73-2h6.73V79.6l-6.73-1.06Z"/><text x="0" y="115" fill="#000000" font-size="5px" font-weight="bold" font-family="'Helvetica Neue', Helvetica, Arial-Unicode, Arial, Sans-serif">Created by Irman Firmansyah</text><text x="0" y="120" fill="#000000" font-size="5px" font-weight="bold" font-family="'Helvetica Neue', Helvetica, Arial-Unicode, Arial, Sans-serif">from the Noun Project</text></svg>