<svg xmlns="http://www.w3.org/2000/svg" xmlns:xlink="http://www.w3.org/1999/xlink" version="1.1" x="0px" y="0px" viewBox="0 0 100 125" style="enable-background:new 0 0 100 100;" xml:space="preserve"><path d="M64,87.2h-3.1V84H39.2v3.2h-3.1c-2.1,0-3.8,1.6-3.8,3.6s1.6,3.6,3.8,3.6H64c2.1,0,3.8-1.6,3.8-3.6  C67.7,88.7,66.1,87.2,64,87.2z"/><path d="M83.8,27.1h-3.7v5.1h3.7c0.3,0,0.5,0.3,0.5,0.6l-0.1,38.8H15.8V32.9c0-0.4,0.3-0.6,0.5-0.6h3.5v-5.1h-3.6  c-3.1,0-5.7,2.6-5.7,5.8v43c0,3.2,2.6,5.8,5.7,5.8h67.5c3.1,0,5.7-2.6,5.7-5.8V32.9C89.5,29.6,87,27.1,83.8,27.1z M50,79  c-1.3,0-2.4-1.1-2.4-2.4s1.1-2.4,2.4-2.4c1.3,0,2.4,1.1,2.4,2.4C52.4,78,51.3,79,50,79z"/><path d="M47.3,20.2h-3.7c-0.6,0-1,0.5-1,1V22h5.7v-0.7C48.3,20.7,47.9,20.2,47.3,20.2z"/><g><path d="M71.7,5.7H28.3c-3.6,0-6.6,2.9-6.6,6.6v38.8c0,3.6,2.9,6.6,6.6,6.6h11.1L50,68.2l10.6-10.6h11.1c3.6,0,6.6-2.9,6.6-6.6   V12.3C78.3,8.6,75.3,5.7,71.7,5.7z M69.9,51.3c-0.4,0.4-1,0.7-1.7,0.7s-1.2-0.2-1.7-0.7L56.4,41.1c-0.4-0.4-0.7-1-0.7-1.6l-0.4-0.4   c-2.7,2.1-6.1,3.4-9.8,3.4c-8.9,0-16.1-7.2-16.1-16.1s7.2-16.1,16.1-16.1c8.9,0,16.1,7.2,16.1,16.1c0,3.9-1.4,7.6-3.8,10.4l0.4,0.4   c0.6,0,1.1,0.3,1.5,0.7l10.2,10.2c0.4,0.4,0.7,1,0.7,1.7C70.6,50.2,70.3,50.9,69.9,51.3z"/><path d="M45.5,13.3c-7.2,0-13.1,5.9-13.1,13.1s5.9,13.1,13.1,13.1c7.2,0,13.1-5.9,13.1-13.1S52.7,13.3,45.5,13.3z M54.3,32.4   c0,1-0.8,1.8-1.8,1.8H38.6c-1,0-1.8-0.8-1.8-1.8v-8.6c0-1,0.8-1.8,1.8-1.8H41v-0.7c0-1.5,1.2-2.7,2.7-2.7h3.7   c1.5,0,2.7,1.2,2.7,2.7V22h2.4c1,0,1.8,0.8,1.8,1.8V32.4z"/></g><text x="0" y="115" fill="#000000" font-size="5px" font-weight="bold" font-family="'Helvetica Neue', Helvetica, Arial-Unicode, Arial, Sans-serif">Created by achmad mulyana</text><text x="0" y="120" fill="#000000" font-size="5px" font-weight="bold" font-family="'Helvetica Neue', Helvetica, Arial-Unicode, Arial, Sans-serif">from the Noun Project</text></svg>