<svg xmlns="http://www.w3.org/2000/svg" xmlns:xlink="http://www.w3.org/1999/xlink" version="1.1" x="0px" y="0px" viewBox="0 0 100 125" style="enable-background:new 0 0 100 100;" xml:space="preserve"><g><path d="M16.1,20.2l32.5,27c0,0,0.1,0.1,0.1,0.1c0.8,0.7,1.9,0.7,2.6,0c0,0,0.1-0.1,0.1-0.1l32.5-27c0.1-0.1,0.2-0.1,0.3-0.2   c-2.5-1.5-5.4-2.5-8.5-2.5H24.2c-3.1,0-6,0.9-8.5,2.5C15.8,20,16,20.1,16.1,20.2z"/><path d="M89.7,25.6c-0.2,0.3-0.4,0.5-0.7,0.7L56.6,53.3c-1.9,1.6-4.2,2.5-6.6,2.5s-4.7-0.8-6.6-2.5L11,26.3   c-0.3-0.2-0.5-0.5-0.7-0.7c-1.3,2.3-2.1,5-2.1,7.9v33c0,8.8,7.2,16,16,16h51.6c8.8,0,16-7.2,16-16v-33C91.8,30.6,91,27.9,89.7,25.6   z"/></g><text x="0" y="115" fill="#000000" font-size="5px" font-weight="bold" font-family="'Helvetica Neue', Helvetica, Arial-Unicode, Arial, Sans-serif">Created by Jivan</text><text x="0" y="120" fill="#000000" font-size="5px" font-weight="bold" font-family="'Helvetica Neue', Helvetica, Arial-Unicode, Arial, Sans-serif">from the Noun Project</text></svg>