<svg xmlns="http://www.w3.org/2000/svg" data-name="Layer 1" viewBox="0 0 100 125" x="0px" y="0px"><title>Coworking</title><path d="M77,50H69.687L77.8,39.183a1,1,0,0,0-.2-1.4l-6.839-5.129a.951.951,0,0,0,.214-.167,2.5,2.5,0,0,0-3.892-3.14.982.982,0,0,0-.093.179,3.976,3.976,0,0,0-5.525.107L59.157,31.94a1,1,0,0,0,0,1.414l5.536,5.536a1,1,0,0,0,1.414,0l2.307-2.307a3.96,3.96,0,0,0,1.125-2.346L75.6,38.783l-8.4,11.2c0,.005,0,.012-.008.017H63V45a3,3,0,0,0-3-3H52a3,3,0,0,0-3,3v5H23a1,1,0,0,0,0,2H49v5H46a1,1,0,0,0-1,1v4a1,1,0,0,0,1,1h9v7.187l-5.158,1.031a1,1,0,0,0,.2,1.981,1.021,1.021,0,0,0,.2-.02L55,72.226V75a1,1,0,0,0,2,0V72.226l4.766.953a1,1,0,0,0,.392-1.961L57,70.187V63h9a1,1,0,0,0,1-1V58a1,1,0,0,0-1-1H63V52H77a1,1,0,0,0,0-2ZM69.343,30.528a.5.5,0,0,1,.075.7,1,1,0,0,0-.186.381,1,1,0,0,0-.283-.014,4.028,4.028,0,0,0-.535-.672l-.074-.074a.986.986,0,0,0,.3-.249A.5.5,0,0,1,69.343,30.528ZM67,35.169l-1.6,1.6-4.122-4.122,1.6-1.6a2.049,2.049,0,0,1,2.828,0L67,32.34a2,2,0,0,1,0,2.829ZM47,59h2v2H47Zm4-1V45a1,1,0,0,1,1-1h8a1,1,0,0,1,1,1V61H51Zm14,1v2H63V59ZM41,53H28a1,1,0,0,0-1,1V74a1,1,0,0,0,1,1H41a1,1,0,0,0,1-1V54A1,1,0,0,0,41,53ZM29,60H40v3H29Zm11-5v3H29V55ZM29,73V65H40v8ZM23,40H46a1,1,0,0,0,1-1V16a1,1,0,0,0-1-1H23a1,1,0,0,0-1,1V39A1,1,0,0,0,23,40Zm5.238-12.881a1,1,0,0,0,1.369-.356,1.8,1.8,0,0,1,.886-.745,1.149,1.149,0,0,0,.636.208,1.81,1.81,0,0,1,1.846,1.808l-.007.121a1,1,0,0,0,.628,1,1.441,1.441,0,0,1,1.083,1.345c0,1.027-.974,1.5-1.878,1.5H24V26.355a.992.992,0,0,0,.871-.877,2.608,2.608,0,0,1,4.7-1.247,3.811,3.811,0,0,0-1.687,1.519A1,1,0,0,0,28.238,27.119ZM45,17V38H24V34h8.8a3.619,3.619,0,0,0,3.878-3.5A3.277,3.277,0,0,0,34.95,27.6a3.811,3.811,0,0,0-2.968-3.276.972.972,0,0,0-.229-.241A4.591,4.591,0,0,0,24,22.751V17Z"/><text x="0" y="115" fill="#000000" font-size="5px" font-weight="bold" font-family="'Helvetica Neue', Helvetica, Arial-Unicode, Arial, Sans-serif">Created by Somewan</text><text x="0" y="120" fill="#000000" font-size="5px" font-weight="bold" font-family="'Helvetica Neue', Helvetica, Arial-Unicode, Arial, Sans-serif">from the Noun Project</text></svg>