<svg xmlns="http://www.w3.org/2000/svg" data-name="Layer 2" viewBox="0 0 46 57.5" x="0px" y="0px"><path d="M23.707,10.293a1,1,0,0,0-1.414,0l-10,10A1,1,0,0,0,12,21V35a1,1,0,0,0,1,1H33a1,1,0,0,0,1-1V21a1,1,0,0,0-.293-.707ZM32,34H14V21.414l9-9,9,9Z"/><path d="M23,1A22,22,0,1,0,45,23,22.025,22.025,0,0,0,23,1Zm0,42A20,20,0,1,1,43,23,20.023,20.023,0,0,1,23,43Z"/><text x="0" y="61" fill="#000000" font-size="5px" font-weight="bold" font-family="'Helvetica Neue', Helvetica, Arial-Unicode, Arial, Sans-serif">Created by Ilham Fitrotul Hayat</text><text x="0" y="66" fill="#000000" font-size="5px" font-weight="bold" font-family="'Helvetica Neue', Helvetica, Arial-Unicode, Arial, Sans-serif">from the Noun Project</text></svg>